<svg xmlns="http://www.w3.org/2000/svg" viewBox="0 0 1888 2240" width="1888" height="2240"><style>path{fill:#3a2e25}</style> <g transform="translate(0, 2240) scale(0.1, -0.1)"  > <path d="M4200 20330 c-96 -32 -587 -194 -1090 -360 -503 -166 -934 -308 -956 -316 l-42 -15 2 -1104 c1 -1099 1 -1105 21 -1105 11 0 36 5 55 10 19 6 454 116 965 245 512 128 984 248 1050 265 66 17 137 36 158 41 l37 10 0 1194 c0 950 -3 1195 -12 1194 -7 0 -92 -27 -188 -59z M13981 19201 c-1 -744 1 -1191 7 -1195 6 -3 115 -33 243 -65 129 -33 342 -87 474 -121 132 -34 310 -79 395 -100 165 -40 731 -184 993 -252 86 -22 161 -38 165 -34 7 7 16 2206 9 2206 -2 0 -178 59 -393 131 -603 203 -1866 619 -1879 619 -9 0 -13 -270 -14 -1189z M8420 20214 c-343 -32 -558 -51 -825 -74 -126 -11 -236 -23 -242 -25 -10 -3 -13 -110 -13 -489 0 -538 7 -487 -65 -500 -54 -9 -833 -156 -1105 -207 -292 -56 -860 -159 -872 -159 -5 0 -8 -556 -8 -1235 l0 -1235 23 5 c12 2 92 18 177 34 455 87 558 107 815 157 154 31 447 89 651 130 204 41 374 74 377 74 4 0 7 -303 7 -674 l0 -673 -52 -11 c-29 -6 -141 -29 -248 -51 -107 -22 -260 -54 -340 -72 -80 -17 -273 -57 -430 -89 -157 -32 -350 -73 -430 -90 -80 -17 -287 -60 -460 -95 -323 -66 -737 -151 -870 -179 -41 -9 -83 -16 -92 -16 -17 0 -18 54 -18 994 l0 993 -62 -17 c-35 -10 -115 -34 -178 -53 -63 -20 -223 -67 -355 -106 -132 -38 -278 -80 -325 -94 -47 -14 -125 -36 -175 -50 -49 -14 -187 -54 -305 -90 -118 -35 -287 -85 -375 -110 -88 -25 -232 -67 -320 -93 -88 -25 -169 -49 -179 -52 -19 -5 -19 -29 -13 -1091 4 -597 7 -1087 7 -1088 0 -7 105 -2 268 12 97 8 317 26 487 40 171 13 340 27 378 31 l67 6 0 -621 0 -620 -37 -10 c-21 -6 -69 -17 -108 -25 -79 -17 -187 -40 -390 -85 -77 -17 -239 -51 -360 -76 -286 -59 -305 -64 -306 -84 0 -17 0 -125 1 -1431 l0 -786 510 4 510 4 0 -691 0 -691 -510 0 -510 0 0 -1095 0 -1094 43 -11 c23 -6 148 -42 277 -80 129 -38 314 -91 410 -119 274 -78 451 -130 461 -136 5 -4 9 -257 9 -626 l0 -619 -27 0 c-16 1 -116 11 -223 24 -662 79 -940 109 -947 102 -4 -4 -7 -501 -5 -1104 l3 -1097 97 -32 c157 -51 459 -146 727 -228 260 -80 454 -141 785 -245 603 -190 612 -193 621 -179 5 8 9 18 9 22 0 8 67 524 75 582 3 17 16 118 30 225 14 107 32 245 40 305 8 61 24 182 35 270 11 88 30 223 40 300 11 77 33 246 50 375 17 129 36 274 43 322 6 51 16 88 22 88 6 0 202 -38 436 -85 233 -47 591 -119 794 -160 204 -41 603 -122 888 -179 285 -57 520 -106 523 -108 5 -5 6 -1309 1 -1314 -2 -2 -120 17 -263 42 -142 24 -378 65 -524 90 -146 25 -373 66 -505 90 -270 51 -698 125 -701 121 -8 -7 -14 -536 -16 -1421 l-3 -1010 110 -18 c155 -25 1222 -209 1575 -271 l295 -52 260 1 c143 0 457 1 698 2 l437 2 0 5086 0 5086 -92 -6 c-96 -7 -836 -33 -1698 -61 -272 -9 -580 -19 -685 -23 l-190 -7 -2 -807 -1 -808 654 -2 654 -3 0 -1129 c0 -621 -1 -1130 -2 -1132 -2 -1 -55 9 -118 22 -316 68 -401 86 -595 128 -115 25 -286 61 -380 81 -93 19 -188 40 -210 45 -57 13 -350 78 -480 105 -60 13 -180 39 -265 59 -85 19 -250 53 -366 77 -117 23 -217 45 -223 48 -8 5 -11 696 -11 2521 0 1382 2 2515 5 2518 2 3 165 38 362 78 468 96 1566 323 1903 394 336 71 374 78 380 75 3 -2 5 -161 5 -354 l0 -351 678 0 677 0 0 4030 c0 3832 -1 4030 -17 4029 -10 -1 -128 -12 -263 -25z M9680 10389 l0 -9849 643 -1 c353 -1 669 -1 702 0 33 1 233 31 445 67 363 62 863 146 1367 232 l223 37 -6 1210 c-4 666 -9 1213 -13 1216 -3 4 -181 -24 -396 -62 -214 -38 -482 -85 -595 -104 -253 -44 -545 -96 -794 -141 -104 -19 -197 -34 -207 -34 -16 0 -17 41 -19 660 -1 532 2 661 12 664 7 2 135 27 283 56 301 58 1346 266 1959 390 219 45 402 77 407 73 4 -4 15 -73 24 -153 9 -80 18 -152 20 -160 2 -8 20 -136 40 -285 19 -148 44 -337 55 -420 11 -82 38 -287 60 -455 21 -168 59 -455 84 -639 26 -183 46 -338 46 -345 1 -36 16 -35 165 10 83 25 229 70 325 99 96 29 225 69 285 88 61 20 322 101 580 181 259 79 513 159 565 177 52 17 145 46 205 64 l110 32 5 1090 c3 599 3 1098 2 1108 -5 22 48 26 -647 -54 -397 -46 -547 -62 -550 -59 -8 8 -6 1231 2 1238 4 5 40 17 78 28 90 26 753 218 952 276 84 24 156 46 160 49 4 3 7 496 5 1096 l-2 1091 -475 0 -475 0 0 615 0 615 -22 4 c-13 3 -72 7 -133 10 -299 15 -1583 92 -2488 150 -104 6 -190 9 -193 7 -2 -2 -4 -310 -4 -683 l0 -678 33 0 c17 0 154 -4 302 -10 149 -5 347 -12 440 -15 94 -3 233 -8 310 -11 l140 -6 1 -779 c1 -704 -1 -779 -15 -784 -9 -2 -65 -14 -126 -26 -60 -11 -220 -45 -355 -76 -135 -30 -308 -68 -385 -84 -77 -16 -169 -36 -205 -44 -90 -21 -118 -27 -335 -74 -104 -22 -287 -61 -405 -86 -655 -140 -778 -167 -807 -172 l-33 -6 0 3083 0 3082 38 -7 c20 -3 143 -29 272 -56 287 -61 690 -145 1200 -249 212 -43 466 -97 565 -119 99 -22 263 -56 365 -77 102 -20 195 -40 208 -45 l22 -9 0 -421 c-1 -232 3 -425 7 -429 4 -4 49 -13 98 -20 50 -6 207 -30 350 -51 143 -22 397 -60 565 -84 168 -25 312 -46 320 -48 13 -2 15 152 12 1346 l-3 1347 23 0 c13 0 210 -16 438 -35 540 -46 738 -60 744 -54 3 3 6 495 7 1094 l1 1088 -119 34 c-65 19 -154 45 -198 57 -175 49 -545 158 -630 186 -49 16 -171 52 -270 80 -336 96 -460 132 -695 202 -129 39 -255 76 -280 83 -25 6 -55 15 -67 19 l-23 7 0 -995 0 -996 -21 0 c-11 0 -55 9 -97 19 -43 11 -102 24 -132 30 -30 6 -188 38 -350 71 -162 33 -371 76 -465 95 -93 18 -235 48 -315 65 -80 17 -219 46 -310 65 -91 19 -185 39 -210 44 -90 20 -764 158 -997 204 l-53 10 0 675 0 675 48 -6 c27 -3 100 -17 163 -31 63 -14 245 -50 404 -81 160 -31 389 -76 510 -100 121 -24 328 -65 460 -90 132 -26 276 -55 320 -65 44 -10 97 -21 118 -24 l37 -7 -2 1233 -3 1233 -200 37 c-110 20 -339 64 -510 97 -170 33 -384 74 -475 91 -91 17 -223 42 -295 55 -468 88 -560 105 -568 105 -4 0 -7 219 -6 486 0 267 -1 487 -3 489 -2 2 -109 13 -238 24 -129 11 -408 36 -620 55 -212 20 -409 37 -437 40 l-53 5 0 -9850z"/> </g> </svg>